<?xml version="1.0" encoding="UTF-8" standalone="no"?>
<svg width="125px" height="102px" viewBox="0 0 125 102" version="1.1" xmlns="http://www.w3.org/2000/svg" xmlns:xlink="http://www.w3.org/1999/xlink">
    <!-- Generator: Sketch 39.1 (31720) - http://www.bohemiancoding.com/sketch -->
    <title>cranberry</title>
    <desc>Created with Sketch.</desc>
    <defs></defs>
    <g id="Page-1" stroke="none" stroke-width="1" fill="none" fill-rule="evenodd">
        <g id="cranberry">
            <g id="peas">
                <g id="bowl" transform="translate(0.000000, 31.423933)">
                    <path d="M62.4720556,19.596475 C96.880972,19.596475 124.77491,15.2096546 124.77491,9.79823748 C124.77491,4.38682034 96.880972,0 62.4720556,0 C28.0631393,0 0.18094396,5.05754179 0.18094396,10.4689589 C0.18094396,15.8803761 28.0631393,19.596475 62.4720556,19.596475 Z" id="Oval" fill="#D50A0A"></path>
                    <path d="M0.185889787,10.6268407 C0.185889787,10.6268407 -0.0252273826,53.7415447 43.8223629,63.645853 C49.1299966,64.844743 55.4165423,66.7784625 62.0339933,66.7784625 C68.525906,66.7784625 74.2955004,64.8345019 79.5228003,63.645853 C115.533371,55.4573181 124.415446,13.5020248 124.415446,13.5020248 L124.791579,9.51817217 C124.791579,9.51817217 122.862524,17.7651938 64.643924,17.7651938 C6.42532404,17.7651938 0.185889787,10.6268407 0.185889787,10.6268407 Z" id="Path-2" fill="#EFEFEF"></path>
                    <path d="M1.72569028,13.5667904 C1.72569028,13.5667904 4.08611328,44.3901671 29.7355334,52.0244308 C29.735533,45.8699865 29.7355339,43.061973 29.7355343,20.2795252 C8.99127528,20.2795252 1.72569028,13.5667904 1.72569028,13.5667904 Z" id="Path-2" fill="#F5F5F5"></path>
                    <path d="M122.501109,11.4158814 C120.25314,24.8384068 117.862112,29.3082271 109.895669,40.9605631 C101.929225,52.6128992 83.4648069,61.8903845 69.8894303,63.3841888 C62.162951,63.3841888 71.8879752,64.6905625 74.1712334,64.4634155 C81.8288374,63.7016084 97.8104049,59.0597328 107.552444,48.726211 C114.688592,41.1567962 118.951236,32.5051505 121.492567,25.0913264 C122.736809,21.4615002 123.568434,18.1283929 124.122667,15.3642924 C125.076262,10.6084674 124.777288,9.6480842 124.777288,9.6480842 C124.56072,9.68350934 124.07273,10.2843152 122.501109,11.4158814 Z" id="Path-2" fill="#E7E7E7"></path>
                    <path d="M43.742497,63.4625776 C43.742497,63.4625776 43.757884,69.0222972 61.1367838,69.0222972 C78.5156836,69.0222972 79.7173362,63.3116883 79.7173362,63.3116883 L43.742497,63.4625776 Z" id="Path-3" fill="#E7E7E7"></path>
                </g>
                <g id="mashed-potato" transform="translate(1.725690, 2.551020)" fill="#CE212B">
                    <path d="M60.7743097,46.9619666 C94.3390342,46.9619666 121.667686,43.6523386 121.667686,38.491923 C121.667686,33.3315074 94.3390342,30.8828077 60.7743097,30.8828077 C27.2095853,30.8828077 0.140681273,34.4822502 0.140681273,38.9223874 C0.140681273,43.3625245 27.2095853,46.9619666 60.7743097,46.9619666 Z" id="Oval-3"></path>
                    <path d="M61.2046946,46.7930606 C90.8175662,46.7930606 114.823542,40.3140644 114.823542,32.3218175 C114.823542,24.3295707 90.8175662,17.8505745 61.2046946,17.8505745 C45.4444358,17.8505745 35.5071851,13.3743021 25.6968063,16.2960465 C17.0738908,18.8641384 6.37755102,24.1479835 6.37755102,32.321818 C6.37755102,40.9070525 31.591823,46.7930606 61.2046946,46.7930606 Z" id="Oval-4"></path>
                    <path d="M62.3099113,46.9619666 C84.2526842,46.9619666 102.040816,37.2987087 102.040816,25.378476 C102.040816,13.4582433 84.2526842,3.79498544 62.3099113,3.79498544 C50.6317537,3.79498544 43.2683734,-2.88126084 35.9990036,1.47644645 C29.6095295,5.30669014 21.6836735,13.1874107 21.6836735,25.3784767 C21.6836735,38.1831354 40.3671383,46.9619666 62.3099113,46.9619666 Z" id="Oval-4" transform="translate(61.862245, 23.480983) scale(-1, 1) translate(-61.862245, -23.480983) "></path>
                </g>
                <ellipse id="Oval-6" fill="#CE212B" cx="12.1173469" cy="31.25" rx="4.46428571" ry="4.46428571"></ellipse>
                <ellipse id="Oval-6" fill="#CE212B" cx="8.29081633" cy="37.627551" rx="4.46428571" ry="4.46428571"></ellipse>
                <ellipse id="Oval-6" fill="#CE212B" cx="17.2193878" cy="27.4234694" rx="4.46428571" ry="4.46428571"></ellipse>
                <circle id="Oval-6" fill="#CE212B" cx="23.5969388" cy="24.872449" r="4.46428571"></circle>
                <ellipse id="Oval-6" fill="#CE212B" cx="28.6989796" cy="19.7704082" rx="4.46428571" ry="4.46428571"></ellipse>
                <ellipse id="Oval-6" fill="#CE212B" cx="33.8010204" cy="15.9438776" rx="4.46428571" ry="4.46428571"></ellipse>
                <ellipse id="Oval-6" fill="#CE212B" cx="40.1785714" cy="13.3928571" rx="4.46428571" ry="4.46428571"></ellipse>
                <ellipse id="Oval-6" fill="#CE212B" cx="58.0357143" cy="7.01530612" rx="4.46428571" ry="4.46428571"></ellipse>
                <ellipse id="Oval-6" fill="#CE212B" cx="64.4132653" cy="4.46428571" rx="4.46428571" ry="4.46428571"></ellipse>
                <circle id="Oval-6" fill="#CE212B" cx="45.2806122" cy="9.56632653" r="4.46428571"></circle>
                <circle id="Oval-6" fill="#CE212B" cx="51.6581633" cy="9.56632653" r="4.46428571"></circle>
                <ellipse id="Oval-6" fill="#CE212B" cx="97.5765306" cy="10.8418367" rx="4.46428571" ry="4.46428571"></ellipse>
                <circle id="Oval-6" fill="#CE212B" cx="88.6479592" cy="5.73979592" r="4.46428571"></circle>
                <circle id="Oval-6" fill="#CE212B" cx="95.0255102" cy="5.73979592" r="4.46428571"></circle>
                <circle id="Oval-6" fill="#CE212B" cx="82.2704082" cy="4.46428571" r="4.46428571"></circle>
                <circle id="Oval-6" fill="#CE212B" cx="100.127551" cy="15.9438776" r="4.46428571"></circle>
                <ellipse id="Oval-6" fill="#CE212B" cx="105.229592" cy="27.4234694" rx="4.46428571" ry="4.46428571"></ellipse>
                <circle id="Oval-6" fill="#CE212B" cx="109.056122" cy="31.25" r="4.46428571"></circle>
                <ellipse id="Oval-6" fill="#CE212B" cx="114.158163" cy="33.8010204" rx="4.46428571" ry="4.46428571"></ellipse>
                <ellipse id="Oval-6" fill="#CE212B" cx="119.260204" cy="38.9030612" rx="4.46428571" ry="4.46428571"></ellipse>
                <circle id="Oval-6" fill="#CE212B" cx="102.678571" cy="21.0459184" r="4.46428571"></circle>
                <ellipse id="Oval-6" fill="#CE212B" cx="69.5153061" cy="7.01530612" rx="4.46428571" ry="4.46428571"></ellipse>
                <ellipse id="Oval-6" fill="#CE212B" cx="75.8928571" cy="7.01530612" rx="4.46428571" ry="4.46428571"></ellipse>
                <g transform="translate(10.204082, 6.377551)" id="Oval-5" fill="#F8E81C">
                    <path d="M49.0374721,19.2614925 C49.0374721,17.8739496 47.9217352,16.7491239 46.5454039,16.7491239 C45.1690726,16.7491239 44.0533356,17.8739496 44.0533356,19.2614925 C44.0533356,20.6490353 49.0374721,20.6490353 49.0374721,19.2614925 Z"></path>
                    <path d="M103.198422,33.1246135 C103.198422,31.7370706 102.082685,30.6122449 100.706354,30.6122449 C99.3300227,30.6122449 98.2142857,31.7370706 98.2142857,33.1246135 C98.2142857,34.5121563 103.198422,34.5121563 103.198422,33.1246135 Z"></path>
                    <path d="M85.727148,21.2069676 C85.727148,19.3569105 84.2394987,17.8571429 82.4043903,17.8571429 C80.5692819,17.8571429 79.0816327,19.3569105 79.0816327,21.2069676 C79.0816327,23.0570248 85.727148,23.0570248 85.727148,21.2069676 Z"></path>
                    <path d="M75.5230664,39.0641105 C75.5230664,37.2140534 74.0354171,35.7142857 72.2003087,35.7142857 C70.3652003,35.7142857 68.877551,37.2140534 68.877551,39.0641105 C68.877551,40.9141676 75.5230664,40.9141676 75.5230664,39.0641105 Z"></path>
                    <path d="M20.290259,20.3695114 C20.290259,18.9819686 19.174522,17.8571429 17.7981907,17.8571429 C16.4218594,17.8571429 15.3061224,18.9819686 15.3061224,20.3695114 C15.3061224,21.7570543 20.290259,21.7570543 20.290259,20.3695114 Z"></path>
                    <path d="M54.0216086,2.51236858 C54.0216086,1.12482573 52.9058717,0 51.5295404,0 C50.1532091,0 49.0374721,1.12482573 49.0374721,2.51236858 C49.0374721,3.89991144 54.0216086,3.89991144 54.0216086,2.51236858 Z"></path>
                    <path d="M82.2650489,5.02473717 C82.2650489,3.17468003 80.7773996,1.67491239 78.9422912,1.67491239 C77.1071828,1.67491239 75.6195335,3.17468003 75.6195335,5.02473717 C75.6195335,6.87479431 82.2650489,6.87479431 82.2650489,5.02473717 Z"></path>
                    <path d="M40.7305779,13.8898696 C40.7305779,12.0398125 39.2429287,10.5400448 37.4078203,10.5400448 C35.5727119,10.5400448 34.0850626,12.0398125 34.0850626,13.8898696 C34.0850626,15.7399267 40.7305779,15.7399267 40.7305779,13.8898696 Z"></path>
                    <path d="M15.1882181,36.9511441 C15.1882181,35.5636012 14.0724812,34.4387755 12.6961499,34.4387755 C11.3198186,34.4387755 10.2040816,35.5636012 10.2040816,36.9511441 C10.2040816,38.3386869 15.1882181,38.3386869 15.1882181,36.9511441 Z"></path>
                    <path d="M6.64551535,31.4110493 C6.64551535,29.5609921 5.15786607,28.0612245 3.32275767,28.0612245 C1.48764928,28.0612245 0,29.5609921 0,31.4110493 C0,33.2611064 6.64551535,33.2611064 6.64551535,31.4110493 Z"></path>
                    <path d="M56.8459527,34.5289631 C56.8459527,32.678906 55.3583034,31.1791383 53.523195,31.1791383 C51.6880866,31.1791383 50.2004373,32.678906 50.2004373,34.5289631 C50.2004373,36.3790202 56.8459527,36.3790202 56.8459527,34.5289631 Z"></path>
                    <path d="M65.8227577,16.1049268 C65.8227577,14.2548697 64.3351084,12.755102 62.5,12.755102 C60.6648916,12.755102 59.1772423,14.2548697 59.1772423,16.1049268 C59.1772423,17.954984 65.8227577,17.954984 65.8227577,16.1049268 Z"></path>
                    <path d="M37.2577602,27.5845187 C37.2577602,25.7344615 35.770111,24.2346939 33.9350026,24.2346939 C32.0998942,24.2346939 30.6122449,25.7344615 30.6122449,27.5845187 C30.6122449,29.4345758 37.2577602,29.4345758 37.2577602,27.5845187 Z"></path>
                    <path d="M37.2577602,41.341626 C37.2577602,39.4915689 35.770111,37.9918012 33.9350026,37.9918012 C32.0998942,37.9918012 30.6122449,39.4915689 30.6122449,41.341626 C30.6122449,43.1916832 37.2577602,43.1916832 37.2577602,41.341626 Z"></path>
                </g>
            </g>
        </g>
    </g>
</svg>