<?xml version="1.0" encoding="UTF-8" standalone="no"?>
<svg width="169px" height="75px" viewBox="0 0 169 75" version="1.1" xmlns="http://www.w3.org/2000/svg" xmlns:xlink="http://www.w3.org/1999/xlink">
    <!-- Generator: Sketch 39.1 (31720) - http://www.bohemiancoding.com/sketch -->
    <title>gravy</title>
    <desc>Created with Sketch.</desc>
    <defs></defs>
    <g id="Page-1" stroke="none" stroke-width="1" fill="none" fill-rule="evenodd">
        <g id="gravy">
            <g>
                <path d="M80.2325581,22.6744186 C105.278029,22.6744186 125.581395,20.3317225 125.581395,17.4418605 C125.581395,14.5519984 105.278029,12.2093023 80.2325581,12.2093023 C55.1870869,12.2093023 34.8837209,14.5519984 34.8837209,17.4418605 C34.8837209,20.3317225 55.1870869,22.6744186 80.2325581,22.6744186 Z" id="Oval" fill="#DDDDDD"></path>
                <path d="M20.8535838,42.1192418 C20.8535838,42.1192418 12.5137796,41.4263841 9.06329488,34.9363975 C4.76737789,26.8562449 5.57269539,11.7088773 18.6341751,8.99503666 C30.2609466,8.99503666 32.7281863,30.3246948 46.7404388,44.3856173 C60.7526912,58.4465397 66.2032726,61.3989735 82.4136424,61.3989735 C98.6240121,61.3989735 113.582451,48.8949958 125.209223,39.4620834 C136.835994,30.0291709 151.80635,15.8900217 168.39997,18.9202043 C157.612929,10.8695261 153.084688,8.9950365 142.931277,8.99503626 C132.777866,8.99503602 117.230083,20.5093905 82.4136424,20.5093895 C47.597202,20.5093884 47.5767624,17.4570649 39.649573,11.4205457 C31.7223837,5.38402654 28.2774459,-1.34488636 17.6309275,0.23322726 C6.98440907,1.81134088 3.47798795e-15,8.09058139 0,27.6547616 C3.43965628e-15,47.2189418 20.8535838,49.7926386 20.8535838,49.7926386 L20.8535838,42.1192418 Z" id="Path-6" fill="#EFEFEF"></path>
                <path d="M106.491599,17.0303846 C66.082089,21.6264085 61.71343,19.6991514 69.4239666,17.7216286 C77.3145117,15.697939 97.8536629,13.6113632 104.779929,13.6119754 C127.090525,13.6139473 130.131781,6.87284248 142.481604,6.87284248 C154.831427,6.87284248 163.843625,10.6929335 167.949446,18.8189839 C162.145193,15.0750429 154.548255,6.48406273 137.657414,9.91154161 C126.528433,12.7586187 122.521831,16.2350676 109.706577,17.7216286 C108.902753,17.8148717 107.268602,16.9420112 106.491599,17.0303846 Z" id="Path-7" fill="#DDDDDD"></path>
                <path d="M62.8486101,57.5581395 L48.8372093,69.1551031 C48.8372093,69.1551031 51.5156591,73.5572992 80.7231105,73.5572992 C109.930562,73.5572992 110.981502,69.7614803 110.981502,69.7614803 L98.3881041,57.9456418 C98.3881041,57.9456418 87.5865848,59.9913131 80.6353902,59.9913131 C73.6841956,59.9913131 62.8486101,57.5581395 62.8486101,57.5581395 Z" id="Path-8" fill="#E7E7E7"></path>
            </g>
        </g>
    </g>
</svg>