<?xml version="1.0" encoding="UTF-8" standalone="no"?>
<svg width="181px" height="50px" viewBox="0 0 181 50" version="1.1" xmlns="http://www.w3.org/2000/svg" xmlns:xlink="http://www.w3.org/1999/xlink">
    <!-- Generator: Sketch 39.1 (31720) - http://www.bohemiancoding.com/sketch -->
    <title>marshmellow</title>
    <desc>Created with Sketch.</desc>
    <defs>
        <linearGradient x1="50%" y1="0%" x2="50%" y2="35.3704741%" id="linearGradient-1">
            <stop stop-color="#F6E4BD" offset="0%"></stop>
            <stop stop-color="#FEFEFF" offset="100%"></stop>
        </linearGradient>
        <linearGradient x1="52.6167978%" y1="0.0685232623%" x2="50.7656502%" y2="35.3905233%" id="linearGradient-2">
            <stop stop-color="#F6E4BD" offset="0%"></stop>
            <stop stop-color="#FEFEFF" offset="100%"></stop>
        </linearGradient>
        <linearGradient x1="47.3832022%" y1="0.0685232623%" x2="49.2343498%" y2="35.3905233%" id="linearGradient-3">
            <stop stop-color="#F6E4BD" offset="0%"></stop>
            <stop stop-color="#FEFEFF" offset="100%"></stop>
        </linearGradient>
        <linearGradient x1="54.3577871%" y1="0.190265095%" x2="51.2750472%" y2="35.4261439%" id="linearGradient-4">
            <stop stop-color="#F6E4BD" offset="0%"></stop>
            <stop stop-color="#FEFEFF" offset="100%"></stop>
        </linearGradient>
        <linearGradient x1="48.2550252%" y1="0.030458649%" x2="49.4894369%" y2="35.379386%" id="linearGradient-5">
            <stop stop-color="#F6E4BD" offset="0%"></stop>
            <stop stop-color="#FEFEFF" offset="100%"></stop>
        </linearGradient>
        <linearGradient x1="50.8726203%" y1="0.00761524218%" x2="50.2553204%" y2="35.3727022%" id="linearGradient-6">
            <stop stop-color="#F6E4BD" offset="0%"></stop>
            <stop stop-color="#FEFEFF" offset="100%"></stop>
        </linearGradient>
        <linearGradient x1="51.7449748%" y1="0.030458649%" x2="50.5105631%" y2="35.379386%" id="linearGradient-7">
            <stop stop-color="#F6E4BD" offset="0%"></stop>
            <stop stop-color="#FEFEFF" offset="100%"></stop>
        </linearGradient>
        <linearGradient x1="50%" y1="0%" x2="50%" y2="100%" id="linearGradient-8">
            <stop stop-color="#FDBA00" stop-opacity="0" offset="0%"></stop>
            <stop stop-color="#F98400" stop-opacity="0.5" offset="100%"></stop>
        </linearGradient>
    </defs>
    <g id="Page-1" stroke="none" stroke-width="1" fill="none" fill-rule="evenodd">
        <g id="marshmellow">
            <g id="marshmellows">
                <rect id="Rectangle-17" fill="#CEE0E8" x="0" y="9" width="181" height="40.4404297"></rect>
                <rect id="Rectangle-15" fill="#F98400" x="3" y="9" width="175" height="38.311986"></rect>
                <rect id="Rectangle-16" fill="url(#linearGradient-1)" x="3" y="1.61561877" width="15.5652783" height="20.6538905" rx="5"></rect>
                <path d="M18.0741286,7.7574824 C18.2213152,5.93617289 20.6175035,4.53709276 23.430303,4.63269011 L28.7949106,4.81501461 C31.6058575,4.910549 33.7656049,6.46021324 33.6180753,8.28576751 L32.5852771,21.0657719 C32.4380905,22.8870815 30.0419022,24.2861616 27.2291028,24.1905642 L21.8644951,24.0082397 C19.0535483,23.9127054 16.8938009,22.3630411 17.0413305,20.5374868 L18.0741286,7.7574824" id="Rectangle-16" fill="url(#linearGradient-2)"></path>
                <path d="M31.5899743,6.48171207 C31.4427877,4.66040256 33.6019006,3.10650346 36.4137489,3.01093844 L44.0799436,2.75039093 C46.8912273,2.6548451 49.2891982,4.04960822 49.4367279,5.8751625 L50.469526,18.6551669 C50.6167126,20.4764764 48.4575997,22.0303755 45.6457514,22.1259406 L37.9795567,22.3864881 C35.168273,22.4820339 32.770302,21.0872708 32.6227724,19.2617165 L31.5899743,6.48171207" id="Rectangle-16" fill="url(#linearGradient-3)"></path>
                <path d="M49.2745934,3.19217654 C49.5155599,1.37349968 51.9415894,0.028037621 54.6973359,0.187237115 L59.9531314,0.490864463 C62.7070629,0.649959104 64.7437132,2.25711105 64.503257,4.07193655 L62.3192991,20.5551966 C62.0783326,22.3738734 59.6523031,23.7193355 56.8965567,23.560136 L51.6407611,23.2565087 C48.8868297,23.097414 46.8501793,21.4902621 47.0906356,19.6754366 L49.2745934,3.19217654" id="Rectangle-16" fill="url(#linearGradient-4)"></path>
                <rect id="Rectangle-16" fill="url(#linearGradient-1)" x="92.6028856" y="1.61561877" width="15.5652783" height="20.6538905" rx="5"></rect>
                <path d="M106.26762,9.23994598 C106.41463,7.42081774 108.812237,6.02355894 111.624085,6.11912396 L119.29028,6.37967146 C122.101563,6.4752173 124.261325,8.02809631 124.114373,9.84649555 L123.282977,20.1343281 C123.135966,21.9534564 120.73836,23.3507152 117.926512,23.2551502 L110.260317,22.9946027 C107.449033,22.8990568 105.289272,21.3461778 105.436223,19.5277786 L106.26762,9.23994598" id="Rectangle-16" fill="url(#linearGradient-2)"></path>
                <path d="M121.75745,5.09155027 C121.659502,3.27259997 123.858706,1.74644768 126.673649,1.68269993 L132.042347,1.5611194 C134.855437,1.49741364 137.215387,2.92195828 137.313246,4.73927077 L138.070047,18.7935778 C138.167995,20.6125281 135.968791,22.1386804 133.153847,22.2024281 L127.78515,22.3240087 C124.97206,22.3877144 122.61211,20.9631698 122.514251,19.1458573 L121.75745,5.09155027" id="Rectangle-16" fill="url(#linearGradient-5)"></path>
                <path d="M62.2323703,8.8484925 C62.1343386,7.02797747 64.3334739,5.5005567 67.1484177,5.43680895 L72.517115,5.31522842 C75.3302047,5.25152266 77.6901742,6.67642752 77.7881667,8.496213 L78.3425719,18.7918884 C78.4406037,20.6124034 76.2414683,22.1398242 73.4265246,22.2035719 L68.0578273,22.3251525 C65.2447375,22.3888582 62.884768,20.9639534 62.7867756,19.1441679 L62.2323703,8.8484925" id="Rectangle-16" fill="url(#linearGradient-5)"></path>
                <path d="M136.576528,6.1447432 C136.62551,4.32496138 138.944864,2.87554153 141.761095,2.90742026 L147.132246,2.96821979 C149.946622,3.00007752 152.188373,4.50276652 152.139436,6.32090978 L151.760978,20.3816417 C151.711996,22.2014235 149.392642,23.6508434 146.576411,23.6189646 L141.20526,23.5581651 C138.390884,23.5263074 136.149133,22.0236184 136.19807,20.2054751 L136.576528,6.1447432" id="Rectangle-16" fill="url(#linearGradient-6)"></path>
                <path d="M148.981726,8.97584672 C149.222229,7.16066991 151.638834,5.81752245 154.39807,5.97692357 L159.942368,6.29721768 C162.693229,6.45613496 164.728145,8.05744624 164.487774,9.87163121 L163.460584,17.6242708 C163.220081,19.4394476 160.803477,20.782595 158.04424,20.6231939 L152.499943,20.3028998 C149.749081,20.1439825 147.714165,18.5426713 147.954536,16.7284863 L148.981726,8.97584672" id="Rectangle-16" fill="url(#linearGradient-4)"></path>
                <rect id="Rectangle-16" fill="url(#linearGradient-1)" x="163" y="3.59656139" width="15" height="16.8986377" rx="5"></rect>
                <path d="M76.5940978,6.69580801 C76.6921296,4.87529298 79.0517681,3.45111107 81.86576,3.51483726 L89.5377989,3.6885797 C92.3512257,3.7522931 94.5524491,5.28049159 94.4544566,7.10027707 L93.9000514,17.3959525 C93.8020196,19.2164675 91.4423811,20.6406494 88.6283893,20.5769232 L80.9563503,20.4031808 C78.1429235,20.3394674 75.9417001,18.8112689 76.0396926,16.9914834 L76.5940978,6.69580801" id="Rectangle-16" fill="url(#linearGradient-7)"></path>
                <rect id="Rectangle-15" fill="url(#linearGradient-8)" x="3" y="12.5474061" width="175" height="27.6697677"></rect>
            </g>
        </g>
    </g>
</svg>