<?xml version="1.0" encoding="UTF-8" standalone="no"?>
<svg width="184px" height="82px" viewBox="0 0 184 82" version="1.1" xmlns="http://www.w3.org/2000/svg" xmlns:xlink="http://www.w3.org/1999/xlink">
    <!-- Generator: Sketch 39.1 (31720) - http://www.bohemiancoding.com/sketch -->
    <title>pie</title>
    <desc>Created with Sketch.</desc>
    <defs></defs>
    <g id="Page-1" stroke="none" stroke-width="1" fill="none" fill-rule="evenodd">
        <g id="pie">
            <g>
                <path d="M14.6363636,42.448446 L33.3691403,81.2344585 L153.328121,81.2344585 L169.068182,38.3720508 L14.6363636,42.448446 Z" id="pie-base" fill="#E9B65E"></path>
                <path d="M2.34050462,41.5149834 C8.80224144,46.7316615 13.6941534,49.6061848 13.6941534,53.6063691 C13.6941534,57.6065534 24.1344943,52.4242145 26.9674133,54.3153074 C29.8003323,56.2064003 29.6511846,61.900061 33.9746931,61.900061 C38.2982016,61.900061 41.7028536,58.8170656 44.3484502,58.8170656 C46.9940468,58.8170656 48.6124772,64.8758295 53.7056945,64.8758295 C58.7989119,64.8758295 61.9256874,61.1813748 65.2726335,62.2749121 C68.6195795,63.3684494 69.2490184,67.5361204 73.7518593,67.5361204 C78.2547002,67.5361204 78.547669,63.930283 84.3235923,65.2506806 C90.0995156,66.5710782 88.7554105,69.3704982 94.106973,68.4533093 C99.4585355,67.5361204 97.2710355,64.3645077 101.891064,64.3645077 C106.511092,64.3645077 108.305304,70.7484971 116.162193,66.5117046 C124.019082,62.2749121 122.725581,62.3918869 125.973983,63.3781973 C129.222385,64.3645077 133.908997,67.1417735 135.904736,64.7083428 C137.900474,62.2749121 143.554771,59.9495945 147.513401,61.1122533 C151.47203,62.2749121 156.385915,55.1226109 158.656866,55.1226109 C160.927818,55.1226109 168.23872,57.1652393 169.99742,54.4136726 C171.756121,51.6621058 170.954452,46.275061 173.550332,46.275061 C176.146213,46.275061 182.512513,37.6348755 182.512513,37.6348755 C182.512513,37.6348755 185.969544,31.4591368 176.284707,26.6303808 C166.599871,21.8016249 175.913614,19.4461774 169.932612,16.8745037 C163.951611,14.3028301 161.60431,16.8851378 157.891597,14.6874291 C154.178883,12.4897204 155.19806,9.25873412 150.092413,7.32687727 C144.986767,5.39502042 142.93421,10.2973287 140.19007,8.81210299 C137.445929,7.32687729 134.587264,3.00944306 130.280624,3.00944306 C125.973983,3.00944306 124.050155,7.08849677 121.473805,7.08849677 C118.897456,7.08849677 116.104487,1.50294918 113.616916,1.50294918 C111.129345,1.50294918 109.902428,-0.300412725 105.896746,2.3908944 C101.891064,5.08220152 102.955517,5.93913086 99.4896079,5.93913056 C96.0236988,5.93913026 95.1572215,0 92.075723,0 C88.9942244,0 86.5297357,5.83190364 82.0082514,5.83190364 C77.486767,5.83190364 76.9647499,0.738181999 72.5915255,0.738181999 C68.2183011,0.738181999 68.9489474,5.42603647 64.4097073,5.42603647 C59.8704673,5.42603647 57.0286704,2.52913736 54.1362698,2.52913736 C51.2438693,2.52913736 47.8108082,8.77665608 45.1838551,8.77665608 C42.5569019,8.77665608 35.8683366,5.15220905 33.4082869,6.96443257 C30.9482372,8.77665608 29.1442599,15.3387662 25.1154957,15.3387662 C21.0867315,15.3387662 20.0613409,13.1738458 15.0462485,15.0241748 C10.0311562,16.8745037 11.1169161,25.8204188 8.62934511,25.8204188 C6.14177409,25.8204188 3.26953647,28.4329367 1.30601415,32.4215205 C-0.65750817,36.4101043 -0.190789831,38.2640582 2.34050462,41.5149834 Z" id="top-of-pie" stroke="#EEAA49" fill="#EFBD66"></path>
                <ellipse id="rasberries" fill="#CE212B" cx="91.9090909" cy="32.6678766" rx="80.9090909" ry="19.9637024"></ellipse>
                <g id="crosses" transform="translate(11.000000, 12.704174)" fill="#EFBD66">
                    <polygon id="Rectangle" points="10.9090909 3.62976407 19.1006747 3.62976407 32.4556108 38.1125227 21.6823509 38.1125227"></polygon>
                    <polygon id="Rectangle-2" points="3.63636364 27.4098985 164.943182 20.3181715 164.943182 25.585583 3.63636364 30.8529946"></polygon>
                    <polygon id="Rectangle-3" points="0 11.6808867 152.578661 9.9747618 161.818182 13.9963419 0 16.2187358"></polygon>
                    <polygon id="Rectangle" points="132.188388 3.62976407 142.140621 3.62976407 148.280362 38.1125227 141.222675 38.1125227"></polygon>
                    <polygon id="Rectangle" points="87.2727273 0 93.3905949 0 103.364702 39.9274047 93.3905949 39.9274047"></polygon>
                    <polygon id="Rectangle" points="58.1818182 0 68.9550781 0 79.7283381 39.9274047 68.9550781 39.9274047"></polygon>
                    <polygon id="Rectangle" points="32.7272727 0 42.3219993 0 51.9167259 39.9274047 41.4452398 39.9274047"></polygon>
                    <polygon id="Rectangle" points="110.909091 0 118.955078 0 127.001065 39.9274047 118.219841 39.9274047"></polygon>
                </g>
            </g>
        </g>
    </g>
</svg>