<?xml version="1.0" encoding="UTF-8" standalone="no"?>
<svg width="125px" height="101px" viewBox="0 0 125 101" version="1.1" xmlns="http://www.w3.org/2000/svg" xmlns:xlink="http://www.w3.org/1999/xlink">
    <!-- Generator: Sketch 39.1 (31720) - http://www.bohemiancoding.com/sketch -->
    <title>potatos</title>
    <desc>Created with Sketch.</desc>
    <defs></defs>
    <g id="Page-1" stroke="none" stroke-width="1" fill="none" fill-rule="evenodd">
        <g id="potatos">
            <g id="mashed-potatoes-container">
                <g id="bowl" transform="translate(0.000000, 30.148423)">
                    <path d="M62.4720556,19.596475 C96.880972,19.596475 124.77491,15.2096546 124.77491,9.79823748 C124.77491,4.38682034 96.880972,0 62.4720556,0 C28.0631393,0 0.18094396,5.05754179 0.18094396,10.4689589 C0.18094396,15.8803761 28.0631393,19.596475 62.4720556,19.596475 Z" id="Oval" fill="#CCCCCC"></path>
                    <path d="M0.185889787,10.6268407 C0.185889787,10.6268407 -0.0252273826,53.7415447 43.8223629,63.645853 C49.1299966,64.844743 55.4165423,66.7784625 62.0339933,66.7784625 C68.525906,66.7784625 74.2955004,64.8345019 79.5228003,63.645853 C115.533371,55.4573181 124.415446,13.5020248 124.415446,13.5020248 L124.791579,9.51817217 C124.791579,9.51817217 122.862524,17.7651938 64.643924,17.7651938 C6.42532404,17.7651938 0.185889787,10.6268407 0.185889787,10.6268407 Z" id="Path-2" fill="#E9A2A2"></path>
                    <path d="M1.72569028,13.5667904 C1.72569028,13.5667904 4.08611328,44.3901671 29.7355334,52.0244308 C29.735533,45.8699865 29.7355339,43.061973 29.7355343,20.2795252 C8.99127528,20.2795252 1.72569028,13.5667904 1.72569028,13.5667904 Z" id="Path-2" fill="#EFB5B5"></path>
                    <path d="M122.501109,11.4158814 C120.25314,24.8384068 117.862112,29.3082271 109.895669,40.9605631 C101.929225,52.6128992 83.4648069,61.8903845 69.8894303,63.3841888 C62.162951,63.3841888 71.8879752,64.6905625 74.1712334,64.4634155 C81.8288374,63.7016084 97.8104049,59.0597328 107.552444,48.726211 C114.688592,41.1567962 118.951236,32.5051505 121.492567,25.0913264 C122.736809,21.4615002 123.568434,18.1283929 124.122667,15.3642924 C125.076262,10.6084674 124.777288,9.6480842 124.777288,9.6480842 C124.56072,9.68350934 124.07273,10.2843152 122.501109,11.4158814 Z" id="Path-2" fill="#E0A0A0"></path>
                    <path d="M43.742497,63.4625776 C43.742497,63.4625776 43.757884,69.0222972 61.1367838,69.0222972 C78.5156836,69.0222972 79.7173362,63.3116883 79.7173362,63.3116883 L43.742497,63.4625776 Z" id="Path-3" fill="#E0A0A0"></path>
                </g>
                <g id="mashed-potato" transform="translate(1.725690, 0.000000)">
                    <path d="M60.7743097,48.2374768 C94.3390342,48.2374768 121.667686,44.9278488 121.667686,39.7674332 C121.667686,34.6070176 94.3390342,32.1583179 60.7743097,32.1583179 C27.2095853,32.1583179 0.140681273,35.7577604 0.140681273,40.1978976 C0.140681273,44.6380347 27.2095853,48.2374768 60.7743097,48.2374768 Z" id="Oval-3" fill="#E7E4A1"></path>
                    <path d="M57.6576785,48.2374768 C86.0585991,48.2374768 109.082094,41.7584806 109.082094,33.7662338 C109.082094,25.7739869 86.0585991,19.2949907 57.6576785,19.2949907 C42.5424317,19.2949907 33.0118778,14.8187184 23.6030034,17.7404627 C15.3329936,20.3085546 5.07441746,25.5923998 5.07441746,33.7662342 C5.07441746,42.3514687 29.2567578,48.2374768 57.6576785,48.2374768 Z" id="Oval-4" fill="#E9E4A2"></path>
                    <path d="M21.8164189,21.1795892 C21.8164189,21.1795892 35.6862502,-2.15167938 57.3775158,0.161270011 C79.0687815,2.47421941 64.6597602,5.02741377 62.7439752,5.02741377 C60.8281902,5.02741377 48.6974762,16.2474938 86.3510259,21.1795886 C116.639651,28.1667923 69.0700938,35.8777299 69.0700938,35.8777299 L21.8164189,21.1795892 Z" id="Path-4" fill="#E9E4A2"></path>
                    <path d="M23.425239,17.8714788 C23.425239,17.8714788 23.6030034,17.6107224 24.4171624,17.6107224 C48.3640915,26.4248181 53.7922547,23.1215616 56.3249686,23.6217605 C64.1325256,24.7876565 50.6376491,26.2303057 42.6178021,24.4025575 C34.597955,22.5748094 23.425239,17.8714788 23.425239,17.8714788 Z" id="Path-5" fill="#E1D976"></path>
                    <path d="M80.7094018,35.49545 C80.7094018,35.49545 80.9502255,35.2642335 81.7643845,35.2642335 C105.711314,44.0783292 105.016164,38.6788152 107.548878,39.1790141 C115.356435,40.3449102 101.861558,41.7875593 93.8417111,39.9598112 C85.821864,38.132063 80.7094018,35.49545 80.7094018,35.49545 Z" id="Path-5" fill="#E1D976" transform="translate(95.303398, 38.046831) scale(-1, 1) translate(-95.303398, -38.046831) "></path>
                    <path d="M4.6749469,37.2428219 C4.6749469,37.2428219 4.85271132,36.9820656 5.66687035,36.9820656 C29.6137994,45.7961613 35.0419626,42.4929048 37.5746765,42.9931037 C45.3822335,44.1589997 31.887357,45.6016489 23.86751,43.7739007 C15.8476629,41.9461526 4.6749469,37.2428219 4.6749469,37.2428219 Z" id="Path-5" fill="#E1D976"></path>
                </g>
                <g id="peas" transform="translate(6.227491, 12.059369)" fill="#9EC653">
                    <path d="M27.0108043,17.3353432 C27.0108043,16.0865547 26.0030419,15.0742115 24.759904,15.0742115 C23.516766,15.0742115 22.5090036,16.0865547 22.5090036,17.3353432 C22.5090036,18.5841318 27.0108043,18.5841318 27.0108043,17.3353432 Z" id="Oval-5"></path>
                    <path d="M70.5282113,32.4095547 C70.5282113,31.1607662 69.5204489,30.148423 68.2773109,30.148423 C67.034173,30.148423 66.0264106,31.1607662 66.0264106,32.4095547 C66.0264106,33.6583433 70.5282113,33.6583433 70.5282113,32.4095547 Z" id="Oval-5"></path>
                    <path d="M85.5342137,15.5157249 C85.5342137,13.8506735 84.1905305,12.5008826 82.5330132,12.5008826 C80.8754959,12.5008826 79.5318127,13.8506735 79.5318127,15.5157249 C79.5318127,17.1807764 85.5342137,17.1807764 85.5342137,15.5157249 Z" id="Oval-5"></path>
                    <path d="M60.0240096,27.5750941 C60.0240096,25.9100427 58.6803264,24.5602518 57.0228091,24.5602518 C55.3652919,24.5602518 54.0216086,25.9100427 54.0216086,27.5750941 C54.0216086,29.2401456 60.0240096,29.2401456 60.0240096,27.5750941 Z" id="Oval-5"></path>
                    <path d="M4.50180072,27.8872913 C4.50180072,26.6385027 3.4940383,25.6261596 2.25090036,25.6261596 C1.00776242,25.6261596 0,26.6385027 0,27.8872913 C0,29.1360798 4.50180072,29.1360798 4.50180072,27.8872913 Z" id="Oval-5"></path>
                    <path d="M31.512605,2.26113173 C31.512605,1.01234316 30.5048426,0 29.2617047,0 C28.0185667,0 27.0108043,1.01234316 27.0108043,2.26113173 C27.0108043,3.50992029 31.512605,3.50992029 31.512605,2.26113173 Z" id="Oval-5"></path>
                    <path d="M57.0228091,4.52226345 C57.0228091,2.85721203 55.6791259,1.50742115 54.0216086,1.50742115 C52.3640914,1.50742115 51.0204082,2.85721203 51.0204082,4.52226345 C51.0204082,6.18731488 57.0228091,6.18731488 57.0228091,4.52226345 Z" id="Oval-5"></path>
                    <path d="M19.5078031,12.5008826 C19.5078031,10.8358312 18.1641199,9.48604033 16.5066026,9.48604033 C14.8490854,9.48604033 13.5054022,10.8358312 13.5054022,12.5008826 C13.5054022,14.1659341 19.5078031,14.1659341 19.5078031,12.5008826 Z" id="Oval-5"></path>
                    <path d="M106.542617,27.5750941 C106.542617,25.9100427 105.198934,24.5602518 103.541417,24.5602518 C101.883899,24.5602518 100.540216,25.9100427 100.540216,27.5750941 C100.540216,29.2401456 106.542617,29.2401456 106.542617,27.5750941 Z" id="Oval-5"></path>
                </g>
            </g>
        </g>
    </g>
</svg>