<?xml version="1.0" encoding="UTF-8" standalone="no"?>
<svg width="323px" height="150px" viewBox="0 0 323 150" version="1.1" xmlns="http://www.w3.org/2000/svg" xmlns:xlink="http://www.w3.org/1999/xlink">
    <!-- Generator: Sketch 39.1 (31720) - http://www.bohemiancoding.com/sketch -->
    <title>turkey</title>
    <desc>Created with Sketch.</desc>
    <defs></defs>
    <g id="Page-1" stroke="none" stroke-width="1" fill="none" fill-rule="evenodd">
        <g id="turkey">
            <g>
                <path d="M175.79675,0.330300167 C139.268701,2.07868905 70.6897385,-1.28889822 15.2689835,100.122055 C-18.8530452,182.340372 287.5284,138.100702 287.5284,138.100702 C287.5284,138.100702 339.686772,8.85498044 175.79675,0.330300167 Z" id="turkey-body" fill="#DE943B"></path>
                <path d="M93.0240236,80.6299407 C93.0240236,80.6299407 123.727241,106.945319 125.52882,115.941228 C127.330398,124.937137 123.722098,153.150645 82.8667345,124.937139 C58.84324,90.2548878 44.6972131,60.0118703 74.1562895,61.9922033 C94.2931338,61.9922033 130.46278,56.790343 139.348021,67.7819983 C148.233262,78.7736537 93.0240236,80.6299407 93.0240236,80.6299407 Z" id="arm" fill-opacity="0.4" fill="#E07026" style="mix-blend-mode: darken;"></path>
                <polygon id="pan" fill="#5B4F3F" points="0 126.271552 12.1567989 149.547414 294.875726 149.547414 306.740218 126.271552"></polygon>
                <path d="M277.102301,33.6069408 C266.654174,20.5197142 182.678442,13.9430689 163.145306,59.477518 C143.612171,105.011967 167.772271,114.016684 178.066166,117.807059 C188.360061,121.597435 244.726773,116.408791 262.438495,83.2114226 C277.853916,54.3180477 282.705335,45.9689749 277.102301,33.6069408 Z" id="leg" fill-opacity="0.4" fill="#E07026" style="mix-blend-mode: darken;"></path>
                <path d="M309.537329,20.4162205 C312.88924,26.3567623 324.029276,22.1469933 322.726381,27.643922 C321.423487,33.1408506 320.973276,34.5787575 299.981545,38.6260355 C278.989814,42.6733135 269.746901,57.6212311 269.746901,57.6212311 L273.292037,46.5800307 L264.033334,48.5640308 L271.206231,41.0008939 L260.88149,42.7059767 L268.299689,35.432033 L258.672665,35.432033 L265.949118,30.3670635 L256.985292,26.8768916 C256.985292,26.8768916 283.364866,24.5104744 287.667209,16.8320965 C291.969551,9.15371862 304.16344,-1.05916254 309.537329,0.369202186 C314.911218,1.79756691 306.185417,14.4756787 309.537329,20.4162205 Z" id="bone" fill="#FFFFFF"></path>
            </g>
        </g>
    </g>
</svg>