<?xml version="1.0" encoding="UTF-8" standalone="no"?>
<svg width="119px" height="193px" viewBox="0 0 119 193" version="1.1" xmlns="http://www.w3.org/2000/svg" xmlns:xlink="http://www.w3.org/1999/xlink">
    <!-- Generator: Sketch 39.1 (31720) - http://www.bohemiancoding.com/sketch -->
    <title>wine</title>
    <desc>Created with Sketch.</desc>
    <defs></defs>
    <g id="Page-1" stroke="none" stroke-width="1" fill="none" fill-rule="evenodd">
        <g id="wine">
            <g id="Group-2">
                <rect id="Rectangle-14" fill="#DE8F07" x="19.8717949" y="0" width="10.2564103" height="17.37" rx="4"></rect>
                <path d="M50,122.500887 L50,70.0388843 C50,56.2300715 38.8071187,45.0333333 25,45.0333333 C11.1898454,45.0333333 0,56.2286998 0,70.0388843 L0,122.500887 L0,188.00627 C0,190.758349 2.23859054,193 5.00003191,193 L44.9999681,193 C47.754469,193 50,190.764231 50,188.00627 L50,122.500887 Z" id="Combined-Shape" fill="#C7E7F3"></path>
                <path d="M4.48717949,72.4522366 C4.48717949,69.6883518 6.55735974,68.299202 9.15415434,69.2292381 C9.15415434,69.2292381 14.6166373,72.0898197 25.0000007,72.0898197 C35.3833641,72.0898197 40.8458462,69.2292381 40.8458462,69.2292381 C43.4233449,68.2453662 45.5128205,69.6947638 45.5128205,72.4522366 L45.5128205,181.562211 C45.5128205,184.326095 43.2779692,186.566667 40.5130455,186.566667 L9.48695452,186.566667 C6.72565502,186.566667 4.48717949,184.319683 4.48717949,181.562211 L4.48717949,72.4522366 Z" id="Rectangle-12" fill="#954746"></path>
                <path d="M17.9487179,11.58 C17.9487179,11.58 21.4788975,12.141346 25,12.141346 C28.5211025,12.141346 32.0512821,11.58 32.0512821,11.58 L32.0512821,54.6833333 L17.9487179,54.6833333 L17.9487179,11.58 Z" id="Rectangle-13" fill="#C7E7F3"></path>
            </g>
            <g transform="translate(82.000000, 109.000000)">
                <path d="M36.9983413,18.2470137 C36.9994459,18.1648077 37,18.0824686 37,18 L37,5.00564575 C37,2.23835942 34.7572942,0 31.9907763,0 L5.00922367,0 C2.23119173,0 0,2.24110394 0,5.00564575 L0,18 C0,18.0824098 0.000553527235,18.16469 0.00165706559,18.2468371 C0.000553510437,18.3300968 0,18.4134893 0,18.497011 L0,34.0198429 C0,44.2243817 8.28273213,52.5168539 18.5,52.5168539 C28.7195144,52.5168539 37,44.23546 37,34.0198429 L37,18.497011 C37,18.4135495 36.9994459,18.3302159 36.9983413,18.2470137 Z" id="Combined-Shape" fill="#C7E7F3"></path>
                <path d="M4.625,14.741573 C4.625,14.741573 11.8298828,17.384601 18.5,17.384601 C25.1701172,17.384601 32.375,14.741573 32.375,14.741573 L32.375,33.1142004 C32.375,40.7769103 26.1646358,46.988764 18.5,46.988764 L18.5,46.988764 C10.8370491,46.988764 4.625,40.7711813 4.625,33.1142004 L4.625,14.741573 Z" id="Rectangle-10" fill="#994E4D"></path>
                <rect id="Rectangle-4" fill="#B3DEE6" x="14.8" y="51.5955056" width="7.4" height="24.8764045"></rect>
                <rect id="Rectangle-9" fill="#C4E6F1" x="4.625" y="75.5505618" width="27.75" height="6.4494382" rx="3.2247191"></rect>
            </g>
            <g transform="translate(55.000000, 104.000000)">
                <path d="M39.9509163,33.5888357 C39.9834572,33.1220996 40,32.6509519 40,32.1759378 L40,5.00358234 C40,2.24226379 37.759041,0 34.9946779,0 L5.00532213,0 C2.23628439,0 -4.03094316e-13,2.24018012 -1.57800536e-12,5.00358234 L-1.31308298e-11,32.1759378 C-1.33327486e-11,32.6508529 0.0165347196,33.1218977 0.049059586,33.5885278 C0.0165345987,34.0549856 -3.97903932e-13,34.5258512 -3.97903932e-13,35.0005798 L-3.97903932e-13,36.9994202 C-3.97903932e-13,48.0414618 8.954305,57 20,57 C31.0481236,57 40,48.0454354 40,36.9994202 L40,35.0005798 C40,34.5259672 39.9834571,34.0552039 39.9509163,33.5888357 Z" id="Combined-Shape" fill="#C7E7F3"></path>
                <path d="M5,24 C5,24 12.7890625,26.1625977 20,26.1625977 C27.2109375,26.1625977 35,24 35,24 L35,37.5 C35,44.9558441 28.9651401,51 21.4919443,51 L18.5080557,51 C11.0477625,51 5,44.9574835 5,37.5 L5,24 Z" id="Rectangle-10" fill="#994E4D"></path>
                <rect id="Rectangle-4" fill="#B3DEE6" x="16" y="56" width="8" height="27"></rect>
                <rect id="Rectangle-9" fill="#C4E6F1" x="5" y="82" width="30" height="7" rx="3.5"></rect>
            </g>
        </g>
    </g>
</svg>